<mxfile host="app.diagrams.net" modified="2024-04-08T13:39:46.379Z" agent="Mozilla/5.0 (Windows NT 10.0; Win64; x64) AppleWebKit/537.36 (KHTML, like Gecko) Chrome/123.0.0.0 Safari/537.36 Edg/123.0.0.0" etag="qeP1VDWBAvimLX1SSNmB" version="24.2.2" type="github">
  <diagram name="Page-1" id="e7e014a7-5840-1c2e-5031-d8a46d1fe8dd">
    <mxGraphModel dx="1106" dy="671" grid="1" gridSize="10" guides="1" tooltips="1" connect="1" arrows="1" fold="1" page="1" pageScale="1" pageWidth="1169" pageHeight="826" background="none" math="0" shadow="0">
      <root>
        <mxCell id="0" />
        <mxCell id="1" parent="0" />
        <mxCell id="LxAjSilcedoxKvx_5Ozk-46" value="" style="edgeStyle=orthogonalEdgeStyle;rounded=0;orthogonalLoop=1;jettySize=auto;html=1;" edge="1" parent="1" source="LxAjSilcedoxKvx_5Ozk-41" target="LxAjSilcedoxKvx_5Ozk-45">
          <mxGeometry relative="1" as="geometry" />
        </mxCell>
        <mxCell id="LxAjSilcedoxKvx_5Ozk-41" value="Note" style="rounded=0;whiteSpace=wrap;html=1;" vertex="1" parent="1">
          <mxGeometry x="170" y="30" width="120" height="50" as="geometry" />
        </mxCell>
        <mxCell id="LxAjSilcedoxKvx_5Ozk-48" value="" style="edgeStyle=orthogonalEdgeStyle;rounded=0;orthogonalLoop=1;jettySize=auto;html=1;" edge="1" parent="1" source="LxAjSilcedoxKvx_5Ozk-45" target="LxAjSilcedoxKvx_5Ozk-47">
          <mxGeometry relative="1" as="geometry" />
        </mxCell>
        <mxCell id="LxAjSilcedoxKvx_5Ozk-45" value="WorkingNote" style="whiteSpace=wrap;html=1;rounded=0;" vertex="1" parent="1">
          <mxGeometry x="370" y="30" width="120" height="50" as="geometry" />
        </mxCell>
        <mxCell id="LxAjSilcedoxKvx_5Ozk-47" value="NotesListActivity" style="whiteSpace=wrap;html=1;rounded=0;" vertex="1" parent="1">
          <mxGeometry x="630" y="125" width="120" height="50" as="geometry" />
        </mxCell>
        <mxCell id="LxAjSilcedoxKvx_5Ozk-52" value="NoteEditActivity" style="rounded=0;whiteSpace=wrap;html=1;strokeColor=default;align=center;verticalAlign=middle;fontFamily=Helvetica;fontSize=12;fontColor=default;fillColor=default;" vertex="1" parent="1">
          <mxGeometry x="260" y="125" width="120" height="50" as="geometry" />
        </mxCell>
        <mxCell id="LxAjSilcedoxKvx_5Ozk-54" style="edgeStyle=orthogonalEdgeStyle;rounded=0;orthogonalLoop=1;jettySize=auto;html=1;entryX=0;entryY=0.5;entryDx=0;entryDy=0;" edge="1" parent="1" source="LxAjSilcedoxKvx_5Ozk-53" target="LxAjSilcedoxKvx_5Ozk-52">
          <mxGeometry relative="1" as="geometry" />
        </mxCell>
        <mxCell id="LxAjSilcedoxKvx_5Ozk-53" value="Alarm" style="rounded=0;whiteSpace=wrap;html=1;strokeColor=default;align=center;verticalAlign=middle;fontFamily=Helvetica;fontSize=12;fontColor=default;fillColor=default;" vertex="1" parent="1">
          <mxGeometry x="10" y="130" width="120" height="40" as="geometry" />
        </mxCell>
        <mxCell id="LxAjSilcedoxKvx_5Ozk-90" style="edgeStyle=orthogonalEdgeStyle;rounded=0;orthogonalLoop=1;jettySize=auto;html=1;exitX=0.25;exitY=0;exitDx=0;exitDy=0;entryX=0.5;entryY=1;entryDx=0;entryDy=0;" edge="1" parent="1" source="LxAjSilcedoxKvx_5Ozk-55" target="LxAjSilcedoxKvx_5Ozk-63">
          <mxGeometry relative="1" as="geometry" />
        </mxCell>
        <mxCell id="LxAjSilcedoxKvx_5Ozk-91" style="edgeStyle=orthogonalEdgeStyle;rounded=0;orthogonalLoop=1;jettySize=auto;html=1;exitX=0.5;exitY=0;exitDx=0;exitDy=0;entryX=0.25;entryY=1;entryDx=0;entryDy=0;" edge="1" parent="1" source="LxAjSilcedoxKvx_5Ozk-55" target="LxAjSilcedoxKvx_5Ozk-41">
          <mxGeometry relative="1" as="geometry" />
        </mxCell>
        <mxCell id="LxAjSilcedoxKvx_5Ozk-92" style="edgeStyle=orthogonalEdgeStyle;rounded=0;orthogonalLoop=1;jettySize=auto;html=1;exitX=0.75;exitY=0;exitDx=0;exitDy=0;entryX=0;entryY=0.5;entryDx=0;entryDy=0;" edge="1" parent="1" source="LxAjSilcedoxKvx_5Ozk-55" target="LxAjSilcedoxKvx_5Ozk-59">
          <mxGeometry relative="1" as="geometry" />
        </mxCell>
        <mxCell id="LxAjSilcedoxKvx_5Ozk-93" style="edgeStyle=orthogonalEdgeStyle;rounded=0;orthogonalLoop=1;jettySize=auto;html=1;exitX=1;exitY=0.5;exitDx=0;exitDy=0;entryX=0;entryY=0.5;entryDx=0;entryDy=0;" edge="1" parent="1" source="LxAjSilcedoxKvx_5Ozk-55" target="LxAjSilcedoxKvx_5Ozk-67">
          <mxGeometry relative="1" as="geometry" />
        </mxCell>
        <mxCell id="LxAjSilcedoxKvx_5Ozk-101" style="edgeStyle=orthogonalEdgeStyle;rounded=0;orthogonalLoop=1;jettySize=auto;html=1;exitX=0;exitY=0.5;exitDx=0;exitDy=0;entryX=1;entryY=0.25;entryDx=0;entryDy=0;" edge="1" parent="1" source="LxAjSilcedoxKvx_5Ozk-55" target="LxAjSilcedoxKvx_5Ozk-61">
          <mxGeometry relative="1" as="geometry" />
        </mxCell>
        <mxCell id="LxAjSilcedoxKvx_5Ozk-106" style="edgeStyle=orthogonalEdgeStyle;rounded=0;orthogonalLoop=1;jettySize=auto;html=1;exitX=0.75;exitY=1;exitDx=0;exitDy=0;entryX=0.5;entryY=0;entryDx=0;entryDy=0;" edge="1" parent="1" source="LxAjSilcedoxKvx_5Ozk-55" target="LxAjSilcedoxKvx_5Ozk-70">
          <mxGeometry relative="1" as="geometry" />
        </mxCell>
        <mxCell id="LxAjSilcedoxKvx_5Ozk-123" style="edgeStyle=orthogonalEdgeStyle;rounded=0;orthogonalLoop=1;jettySize=auto;html=1;exitX=1;exitY=0;exitDx=0;exitDy=0;entryX=0.25;entryY=1;entryDx=0;entryDy=0;" edge="1" parent="1" source="LxAjSilcedoxKvx_5Ozk-55" target="LxAjSilcedoxKvx_5Ozk-66">
          <mxGeometry relative="1" as="geometry" />
        </mxCell>
        <mxCell id="LxAjSilcedoxKvx_5Ozk-55" value="Notes" style="rounded=0;whiteSpace=wrap;html=1;strokeColor=default;align=center;verticalAlign=middle;fontFamily=Helvetica;fontSize=12;fontColor=default;fillColor=default;" vertex="1" parent="1">
          <mxGeometry x="230" y="298.5" width="110" height="45" as="geometry" />
        </mxCell>
        <mxCell id="LxAjSilcedoxKvx_5Ozk-59" value="BackupUtils" style="whiteSpace=wrap;html=1;rounded=0;" vertex="1" parent="1">
          <mxGeometry x="440" y="255" width="130" height="41" as="geometry" />
        </mxCell>
        <mxCell id="LxAjSilcedoxKvx_5Ozk-61" value="NotesDatabaseHelper" style="whiteSpace=wrap;html=1;rounded=0;" vertex="1" parent="1">
          <mxGeometry x="15" y="310" width="130" height="40" as="geometry" />
        </mxCell>
        <mxCell id="LxAjSilcedoxKvx_5Ozk-63" value="DateTime" style="rounded=0;whiteSpace=wrap;html=1;" vertex="1" parent="1">
          <mxGeometry x="10" y="180" width="120" height="40" as="geometry" />
        </mxCell>
        <mxCell id="LxAjSilcedoxKvx_5Ozk-116" style="edgeStyle=orthogonalEdgeStyle;rounded=0;orthogonalLoop=1;jettySize=auto;html=1;exitX=0.25;exitY=1;exitDx=0;exitDy=0;entryX=0.75;entryY=0;entryDx=0;entryDy=0;" edge="1" parent="1" source="LxAjSilcedoxKvx_5Ozk-65" target="LxAjSilcedoxKvx_5Ozk-75">
          <mxGeometry relative="1" as="geometry" />
        </mxCell>
        <mxCell id="LxAjSilcedoxKvx_5Ozk-65" value="GTaskStringUtils" style="rounded=0;whiteSpace=wrap;html=1;" vertex="1" parent="1">
          <mxGeometry x="445" y="340" width="120" height="40" as="geometry" />
        </mxCell>
        <mxCell id="LxAjSilcedoxKvx_5Ozk-79" style="edgeStyle=orthogonalEdgeStyle;rounded=0;orthogonalLoop=1;jettySize=auto;html=1;entryX=1;entryY=0.5;entryDx=0;entryDy=0;" edge="1" parent="1" source="LxAjSilcedoxKvx_5Ozk-66" target="LxAjSilcedoxKvx_5Ozk-52">
          <mxGeometry relative="1" as="geometry" />
        </mxCell>
        <mxCell id="LxAjSilcedoxKvx_5Ozk-103" style="edgeStyle=orthogonalEdgeStyle;rounded=0;orthogonalLoop=1;jettySize=auto;html=1;exitX=0;exitY=0.25;exitDx=0;exitDy=0;entryX=0.5;entryY=0;entryDx=0;entryDy=0;" edge="1" parent="1" source="LxAjSilcedoxKvx_5Ozk-66" target="LxAjSilcedoxKvx_5Ozk-69">
          <mxGeometry relative="1" as="geometry" />
        </mxCell>
        <mxCell id="LxAjSilcedoxKvx_5Ozk-121" style="edgeStyle=orthogonalEdgeStyle;rounded=0;orthogonalLoop=1;jettySize=auto;html=1;exitX=0;exitY=0.75;exitDx=0;exitDy=0;entryX=0.25;entryY=0;entryDx=0;entryDy=0;" edge="1" parent="1" source="LxAjSilcedoxKvx_5Ozk-66" target="LxAjSilcedoxKvx_5Ozk-69">
          <mxGeometry relative="1" as="geometry" />
        </mxCell>
        <mxCell id="LxAjSilcedoxKvx_5Ozk-66" value="NotesPreferenceActivity" style="rounded=0;whiteSpace=wrap;html=1;" vertex="1" parent="1">
          <mxGeometry x="460" y="125" width="125" height="50" as="geometry" />
        </mxCell>
        <mxCell id="LxAjSilcedoxKvx_5Ozk-94" style="edgeStyle=orthogonalEdgeStyle;rounded=0;orthogonalLoop=1;jettySize=auto;html=1;exitX=1;exitY=0.5;exitDx=0;exitDy=0;entryX=0;entryY=0.5;entryDx=0;entryDy=0;" edge="1" parent="1" source="LxAjSilcedoxKvx_5Ozk-67" target="LxAjSilcedoxKvx_5Ozk-68">
          <mxGeometry relative="1" as="geometry" />
        </mxCell>
        <mxCell id="LxAjSilcedoxKvx_5Ozk-67" value="DataUtils" style="rounded=0;whiteSpace=wrap;html=1;" vertex="1" parent="1">
          <mxGeometry x="635" y="298.5" width="110" height="40" as="geometry" />
        </mxCell>
        <mxCell id="LxAjSilcedoxKvx_5Ozk-95" style="edgeStyle=orthogonalEdgeStyle;rounded=0;orthogonalLoop=1;jettySize=auto;html=1;exitX=0.25;exitY=0;exitDx=0;exitDy=0;entryX=1;entryY=0.75;entryDx=0;entryDy=0;" edge="1" parent="1" source="LxAjSilcedoxKvx_5Ozk-68" target="LxAjSilcedoxKvx_5Ozk-47">
          <mxGeometry relative="1" as="geometry" />
        </mxCell>
        <mxCell id="LxAjSilcedoxKvx_5Ozk-96" style="edgeStyle=orthogonalEdgeStyle;rounded=0;orthogonalLoop=1;jettySize=auto;html=1;exitX=0.5;exitY=0;exitDx=0;exitDy=0;entryX=0.75;entryY=0;entryDx=0;entryDy=0;" edge="1" parent="1" source="LxAjSilcedoxKvx_5Ozk-68" target="LxAjSilcedoxKvx_5Ozk-45">
          <mxGeometry relative="1" as="geometry" />
        </mxCell>
        <mxCell id="LxAjSilcedoxKvx_5Ozk-99" style="edgeStyle=orthogonalEdgeStyle;rounded=0;orthogonalLoop=1;jettySize=auto;html=1;exitX=0.75;exitY=0;exitDx=0;exitDy=0;entryX=0.75;entryY=0;entryDx=0;entryDy=0;" edge="1" parent="1" source="LxAjSilcedoxKvx_5Ozk-68" target="LxAjSilcedoxKvx_5Ozk-52">
          <mxGeometry relative="1" as="geometry" />
        </mxCell>
        <mxCell id="LxAjSilcedoxKvx_5Ozk-120" style="edgeStyle=orthogonalEdgeStyle;rounded=0;orthogonalLoop=1;jettySize=auto;html=1;exitX=1;exitY=0.5;exitDx=0;exitDy=0;entryX=1;entryY=0.5;entryDx=0;entryDy=0;" edge="1" parent="1" source="LxAjSilcedoxKvx_5Ozk-68" target="LxAjSilcedoxKvx_5Ozk-78">
          <mxGeometry relative="1" as="geometry" />
        </mxCell>
        <mxCell id="LxAjSilcedoxKvx_5Ozk-68" value="ResourceParser" style="rounded=0;whiteSpace=wrap;html=1;" vertex="1" parent="1">
          <mxGeometry x="790" y="298.5" width="120" height="40" as="geometry" />
        </mxCell>
        <mxCell id="LxAjSilcedoxKvx_5Ozk-105" style="edgeStyle=orthogonalEdgeStyle;rounded=0;orthogonalLoop=1;jettySize=auto;html=1;entryX=0;entryY=0.5;entryDx=0;entryDy=0;" edge="1" parent="1" source="LxAjSilcedoxKvx_5Ozk-69" target="LxAjSilcedoxKvx_5Ozk-70">
          <mxGeometry relative="1" as="geometry" />
        </mxCell>
        <mxCell id="LxAjSilcedoxKvx_5Ozk-69" value="GTaskClient" style="rounded=0;whiteSpace=wrap;html=1;" vertex="1" parent="1">
          <mxGeometry x="100" y="430" width="130" height="50" as="geometry" />
        </mxCell>
        <mxCell id="LxAjSilcedoxKvx_5Ozk-113" style="edgeStyle=orthogonalEdgeStyle;rounded=0;orthogonalLoop=1;jettySize=auto;html=1;exitX=1;exitY=0.5;exitDx=0;exitDy=0;" edge="1" parent="1" source="LxAjSilcedoxKvx_5Ozk-70">
          <mxGeometry relative="1" as="geometry">
            <mxPoint x="520" y="455" as="targetPoint" />
          </mxGeometry>
        </mxCell>
        <mxCell id="LxAjSilcedoxKvx_5Ozk-70" value="GTasjManager" style="rounded=0;whiteSpace=wrap;html=1;" vertex="1" parent="1">
          <mxGeometry x="310" y="430" width="120" height="50" as="geometry" />
        </mxCell>
        <mxCell id="LxAjSilcedoxKvx_5Ozk-114" style="edgeStyle=orthogonalEdgeStyle;rounded=0;orthogonalLoop=1;jettySize=auto;html=1;entryX=0;entryY=0.5;entryDx=0;entryDy=0;" edge="1" parent="1" source="LxAjSilcedoxKvx_5Ozk-71" target="LxAjSilcedoxKvx_5Ozk-72">
          <mxGeometry relative="1" as="geometry" />
        </mxCell>
        <mxCell id="LxAjSilcedoxKvx_5Ozk-71" value="GTaskAsyncTask" style="rounded=0;whiteSpace=wrap;html=1;" vertex="1" parent="1">
          <mxGeometry x="525" y="430" width="120" height="50" as="geometry" />
        </mxCell>
        <mxCell id="LxAjSilcedoxKvx_5Ozk-124" style="edgeStyle=orthogonalEdgeStyle;rounded=0;orthogonalLoop=1;jettySize=auto;html=1;exitX=0.25;exitY=0;exitDx=0;exitDy=0;entryX=0.75;entryY=1;entryDx=0;entryDy=0;" edge="1" parent="1" source="LxAjSilcedoxKvx_5Ozk-72" target="LxAjSilcedoxKvx_5Ozk-66">
          <mxGeometry relative="1" as="geometry" />
        </mxCell>
        <mxCell id="LxAjSilcedoxKvx_5Ozk-72" value="GTaskSyncService" style="rounded=0;whiteSpace=wrap;html=1;" vertex="1" parent="1">
          <mxGeometry x="770" y="430" width="120" height="50" as="geometry" />
        </mxCell>
        <mxCell id="LxAjSilcedoxKvx_5Ozk-108" style="edgeStyle=orthogonalEdgeStyle;rounded=0;orthogonalLoop=1;jettySize=auto;html=1;exitX=0.75;exitY=0;exitDx=0;exitDy=0;entryX=0.25;entryY=1;entryDx=0;entryDy=0;" edge="1" parent="1" source="LxAjSilcedoxKvx_5Ozk-73" target="LxAjSilcedoxKvx_5Ozk-70">
          <mxGeometry relative="1" as="geometry" />
        </mxCell>
        <mxCell id="LxAjSilcedoxKvx_5Ozk-118" style="edgeStyle=orthogonalEdgeStyle;rounded=0;orthogonalLoop=1;jettySize=auto;html=1;exitX=0.25;exitY=0;exitDx=0;exitDy=0;entryX=0;entryY=0.5;entryDx=0;entryDy=0;" edge="1" parent="1" source="LxAjSilcedoxKvx_5Ozk-73" target="LxAjSilcedoxKvx_5Ozk-69">
          <mxGeometry relative="1" as="geometry" />
        </mxCell>
        <mxCell id="LxAjSilcedoxKvx_5Ozk-73" value="Node" style="rounded=0;whiteSpace=wrap;html=1;" vertex="1" parent="1">
          <mxGeometry x="30" y="570" width="120" height="40" as="geometry" />
        </mxCell>
        <mxCell id="LxAjSilcedoxKvx_5Ozk-74" value="Task" style="rounded=0;whiteSpace=wrap;html=1;" vertex="1" parent="1">
          <mxGeometry x="210" y="570" width="110" height="30" as="geometry" />
        </mxCell>
        <mxCell id="LxAjSilcedoxKvx_5Ozk-75" value="TaskList" style="rounded=0;whiteSpace=wrap;html=1;" vertex="1" parent="1">
          <mxGeometry x="360" y="570" width="120" height="35" as="geometry" />
        </mxCell>
        <mxCell id="LxAjSilcedoxKvx_5Ozk-111" style="edgeStyle=orthogonalEdgeStyle;rounded=0;orthogonalLoop=1;jettySize=auto;html=1;exitX=0.25;exitY=0;exitDx=0;exitDy=0;entryX=0.75;entryY=1;entryDx=0;entryDy=0;" edge="1" parent="1" source="LxAjSilcedoxKvx_5Ozk-76" target="LxAjSilcedoxKvx_5Ozk-70">
          <mxGeometry relative="1" as="geometry" />
        </mxCell>
        <mxCell id="LxAjSilcedoxKvx_5Ozk-76" value="MetaData" style="rounded=0;whiteSpace=wrap;html=1;" vertex="1" parent="1">
          <mxGeometry x="540" y="565" width="120" height="40" as="geometry" />
        </mxCell>
        <mxCell id="LxAjSilcedoxKvx_5Ozk-112" style="edgeStyle=orthogonalEdgeStyle;rounded=0;orthogonalLoop=1;jettySize=auto;html=1;exitX=0.25;exitY=0;exitDx=0;exitDy=0;entryX=1;entryY=1;entryDx=0;entryDy=0;" edge="1" parent="1" source="LxAjSilcedoxKvx_5Ozk-77" target="LxAjSilcedoxKvx_5Ozk-70">
          <mxGeometry relative="1" as="geometry" />
        </mxCell>
        <mxCell id="LxAjSilcedoxKvx_5Ozk-115" style="edgeStyle=orthogonalEdgeStyle;rounded=0;orthogonalLoop=1;jettySize=auto;html=1;exitX=1;exitY=0.5;exitDx=0;exitDy=0;entryX=0;entryY=0.5;entryDx=0;entryDy=0;" edge="1" parent="1" source="LxAjSilcedoxKvx_5Ozk-77" target="LxAjSilcedoxKvx_5Ozk-78">
          <mxGeometry relative="1" as="geometry" />
        </mxCell>
        <mxCell id="LxAjSilcedoxKvx_5Ozk-77" value="sqlData" style="rounded=0;whiteSpace=wrap;html=1;" vertex="1" parent="1">
          <mxGeometry x="710" y="565" width="120" height="40" as="geometry" />
        </mxCell>
        <mxCell id="LxAjSilcedoxKvx_5Ozk-78" value="sqlNote" style="rounded=0;whiteSpace=wrap;html=1;" vertex="1" parent="1">
          <mxGeometry x="880" y="565" width="120" height="40" as="geometry" />
        </mxCell>
        <mxCell id="LxAjSilcedoxKvx_5Ozk-89" style="edgeStyle=orthogonalEdgeStyle;rounded=0;orthogonalLoop=1;jettySize=auto;html=1;exitX=1;exitY=0.5;exitDx=0;exitDy=0;entryX=0;entryY=0.75;entryDx=0;entryDy=0;" edge="1" parent="1" source="LxAjSilcedoxKvx_5Ozk-80" target="LxAjSilcedoxKvx_5Ozk-52">
          <mxGeometry relative="1" as="geometry" />
        </mxCell>
        <mxCell id="LxAjSilcedoxKvx_5Ozk-80" value="Contact" style="rounded=0;whiteSpace=wrap;html=1;strokeColor=default;align=center;verticalAlign=middle;fontFamily=Helvetica;fontSize=12;fontColor=default;fillColor=default;" vertex="1" parent="1">
          <mxGeometry x="10" y="271" width="140" height="30" as="geometry" />
        </mxCell>
        <mxCell id="LxAjSilcedoxKvx_5Ozk-97" value="" style="shape=flexArrow;endArrow=classic;html=1;rounded=0;" edge="1" parent="1">
          <mxGeometry width="50" height="50" relative="1" as="geometry">
            <mxPoint x="990" y="140" as="sourcePoint" />
            <mxPoint x="750" y="140" as="targetPoint" />
          </mxGeometry>
        </mxCell>
        <mxCell id="LxAjSilcedoxKvx_5Ozk-98" value="入口" style="text;html=1;align=center;verticalAlign=middle;resizable=0;points=[];autosize=1;strokeColor=none;fillColor=none;" vertex="1" parent="1">
          <mxGeometry x="985" y="128" width="50" height="30" as="geometry" />
        </mxCell>
        <mxCell id="LxAjSilcedoxKvx_5Ozk-104" style="edgeStyle=orthogonalEdgeStyle;rounded=0;orthogonalLoop=1;jettySize=auto;html=1;exitX=0;exitY=0.5;exitDx=0;exitDy=0;entryX=0.688;entryY=0.01;entryDx=0;entryDy=0;entryPerimeter=0;" edge="1" parent="1" source="LxAjSilcedoxKvx_5Ozk-65" target="LxAjSilcedoxKvx_5Ozk-69">
          <mxGeometry relative="1" as="geometry" />
        </mxCell>
        <mxCell id="LxAjSilcedoxKvx_5Ozk-107" style="edgeStyle=orthogonalEdgeStyle;rounded=0;orthogonalLoop=1;jettySize=auto;html=1;exitX=0;exitY=0.75;exitDx=0;exitDy=0;entryX=0.7;entryY=-0.02;entryDx=0;entryDy=0;entryPerimeter=0;" edge="1" parent="1" source="LxAjSilcedoxKvx_5Ozk-65" target="LxAjSilcedoxKvx_5Ozk-70">
          <mxGeometry relative="1" as="geometry" />
        </mxCell>
        <mxCell id="LxAjSilcedoxKvx_5Ozk-109" style="edgeStyle=orthogonalEdgeStyle;rounded=0;orthogonalLoop=1;jettySize=auto;html=1;exitX=0.25;exitY=0;exitDx=0;exitDy=0;entryX=0.663;entryY=1;entryDx=0;entryDy=0;entryPerimeter=0;" edge="1" parent="1" source="LxAjSilcedoxKvx_5Ozk-75" target="LxAjSilcedoxKvx_5Ozk-70">
          <mxGeometry relative="1" as="geometry" />
        </mxCell>
        <mxCell id="LxAjSilcedoxKvx_5Ozk-119" style="edgeStyle=orthogonalEdgeStyle;rounded=0;orthogonalLoop=1;jettySize=auto;html=1;exitX=0.25;exitY=1;exitDx=0;exitDy=0;entryX=0.427;entryY=0;entryDx=0;entryDy=0;entryPerimeter=0;" edge="1" parent="1" source="LxAjSilcedoxKvx_5Ozk-55" target="LxAjSilcedoxKvx_5Ozk-74">
          <mxGeometry relative="1" as="geometry" />
        </mxCell>
        <mxCell id="LxAjSilcedoxKvx_5Ozk-122" style="edgeStyle=orthogonalEdgeStyle;rounded=0;orthogonalLoop=1;jettySize=auto;html=1;exitX=1;exitY=0.5;exitDx=0;exitDy=0;entryX=0.671;entryY=0.03;entryDx=0;entryDy=0;entryPerimeter=0;" edge="1" parent="1" source="LxAjSilcedoxKvx_5Ozk-66" target="LxAjSilcedoxKvx_5Ozk-71">
          <mxGeometry relative="1" as="geometry" />
        </mxCell>
      </root>
    </mxGraphModel>
  </diagram>
</mxfile>
